<?xml version="1.0" encoding="UTF-8"?> <svg xmlns="http://www.w3.org/2000/svg" width="278" height="150" viewBox="0 45 278 150" fill="none"><path d="M60.9874 71.9975V86.9952H68.4559V89.9948L58 89.9992V70.4978L68.4559 62.624V66.3733L60.9874 71.9975Z" fill="#000"></path><path d="M74.132 68.3981L71.4434 66.3733V62.624L75.9245 65.9985L74.132 68.3981Z" fill="#000"></path><path d="M81.8995 70.4981V73.4977H78.9121V71.9979L76.5132 70.1906L78.3056 67.791L81.8995 70.4981Z" fill="#000"></path><path d="M81.8993 76.498H78.9119V80.9974H81.8993V76.498Z" fill="#000"></path><path d="M74.4308 86.9961H71.4434V89.9965H74.4308V86.9961Z" fill="#000"></path><path d="M81.8991 83.9961V89.9996L77.418 89.9981V86.9956H78.9117V83.9961H81.8991Z" fill="#000"></path><path d="M106.034 73.3053L102.528 87.0127H96.5084L90.8613 65.2051H96.5395L99.8283 80.5638L103.645 65.2051H108.423L112.239 80.5638L115.528 65.2051H121.206L115.559 87.0127H109.54L106.034 73.3053H106.034Z" fill="#000"></path><path d="M128.779 70.2529C134.022 70.2529 137.714 73.8666 137.714 78.8201C137.714 83.7423 133.929 87.4185 128.779 87.4185C123.597 87.4185 119.936 83.8049 119.936 78.8823C119.936 73.929 123.752 70.2529 128.779 70.2529ZM128.779 82.8391C130.919 82.8391 132.533 81.1568 132.533 78.8203C132.533 76.4216 130.888 74.8326 128.779 74.8326C126.638 74.8326 125.117 76.4837 125.117 78.8825C125.117 81.2503 126.668 82.8391 128.779 82.8391Z" fill="#000"></path><path d="M148.605 75.5491C148.388 75.5179 148.14 75.4867 147.767 75.4867C145.254 75.4867 144.416 77.325 144.416 79.7859V87.0137H139.235V70.658H144.292V72.8386C145.068 71.2497 146.589 70.2529 148.605 70.2529V75.5491Z" fill="#000"></path><path d="M160.209 78.1345L165.887 87.0134H159.805L155.244 79.3806V87.0134H150.063V64.4893H155.244V77.2311L159.65 70.6577H165.452L160.209 78.1345H160.209Z" fill="#000"></path><path d="M176.405 77.2621C176.405 75.7355 175.505 74.9257 174.264 74.9257C172.837 74.9257 171.968 75.9536 171.968 77.2621V87.0132H166.786V64.4893H171.968V72.34C172.588 71.3742 173.954 70.2526 176.002 70.2526C181.09 70.2526 181.587 74.6142 181.587 77.9476V87.0134H176.405V77.2621Z" fill="#000"></path><path d="M188.878 80.4093C188.878 81.9359 189.778 82.7457 191.019 82.7457C192.446 82.7457 193.253 81.7178 193.253 80.4093V70.6582H198.434V87.014H193.377V85.3317C192.756 86.2975 191.329 87.419 189.281 87.419C184.193 87.419 183.696 83.0574 183.696 79.724V70.6582H188.878V80.4093Z" fill="#000"></path><path d="M205.509 87.0134H200.668V64.4893H205.85V71.9037C206.191 71.4987 207.711 70.2526 210.194 70.2526C214.91 70.2526 217.888 73.773 217.888 78.851C217.888 83.8667 214.6 87.4182 209.914 87.4182C207.525 87.4182 205.974 86.2657 205.509 85.736V87.0132V87.0134ZM209.201 82.87C211.28 82.87 212.707 81.3124 212.707 78.8822C212.707 76.4834 211.311 74.8323 209.201 74.8323C207.153 74.8323 205.695 76.2967 205.695 78.8822C205.695 81.0629 206.967 82.87 209.201 82.87Z" fill="#000"></path></svg> 